<?xml version="1.0" standalone="no"?><!DOCTYPE svg PUBLIC "-//W3C//DTD SVG 1.1//EN" "http://www.w3.org/Graphics/SVG/1.1/DTD/svg11.dtd"><svg t="1627753624940" class="icon" viewBox="0 0 1024 1024" version="1.1" xmlns="http://www.w3.org/2000/svg" p-id="2995" xmlns:xlink="http://www.w3.org/1999/xlink" width="200" height="200"><defs><style type="text/css"></style></defs><path d="M508.5 811.2c-42.2 0-83.1-8.3-121.7-24.6-37.2-15.7-70.6-38.3-99.3-67-28.7-28.7-51.2-62.1-67-99.3-16.3-38.5-24.6-79.5-24.6-121.7s8.3-83.1 24.6-121.7c15.7-37.2 38.3-70.6 67-99.3 28.7-28.7 62.1-51.2 99.3-67 38.5-16.3 79.5-24.6 121.7-24.6s83.1 8.3 121.7 24.6c37.2 15.7 70.6 38.3 99.3 67 28.7 28.7 51.2 62.1 67 99.3 16.3 38.5 24.6 79.5 24.6 121.7s-8.3 83.1-24.6 121.7c-15.7 37.2-38.3 70.6-67 99.3-28.7 28.7-62.1 51.2-99.3 67-38.6 16.4-79.5 24.6-121.7 24.6z" fill="#FFFFFF" p-id="2996"></path><path d="M508.5 191.4c169.7 0 307.3 137.6 307.3 307.3S678.2 806 508.5 806 201.2 668.4 201.2 498.7s137.6-307.3 307.3-307.3m0-10.5c-42.9 0-84.5 8.4-123.7 25-37.8 16-71.8 38.9-101 68.1-29.2 29.2-52.1 63.2-68.1 101-16.6 39.2-25 80.8-25 123.7s8.4 84.5 25 123.7c16 37.8 38.9 71.8 68.1 101 29.2 29.2 63.2 52.1 101 68.1 39.2 16.6 80.8 25 123.7 25s84.5-8.4 123.7-25c37.8-16 71.8-38.9 101-68.1 29.2-29.2 52.1-63.2 68.1-101 16.6-39.2 25-80.8 25-123.7s-8.4-84.5-25-123.7c-16-37.8-38.9-71.8-68.1-101-29.2-29.2-63.2-52.1-101-68.1-39.2-16.6-80.8-25-123.7-25z" fill="#6D4120" p-id="2997"></path><path d="M517.5 435c113.6 0 217.7 27.3 298.2 72.6 0.1-2.5 0.1-5.1 0.1-7.6 0-169.7-137.6-307.3-307.3-307.3S201.2 330.4 201.2 500.1c0 6.1 0.2 12.1 0.5 18 82.6-51.5 193.7-83.1 315.8-83.1z" fill="#C7F3F9" p-id="2998"></path><path d="M508.3 191.4c-11.9 0-23.6 0.7-35.1 2C624.5 205 745.1 326.2 755.8 477.8c21 8.5 41 18 59.6 28.5 0.1-2.5 0.1-5.1 0.1-7.6 0.1-169.7-137.5-307.3-307.2-307.3z" fill="#ADF2F7" p-id="2999"></path><path d="M517.5 404.6c-122.1 0-233.2 31.5-315.8 83.1-0.1-0.9-0.1-1.9-0.1-2.8-0.3 5.1-0.4 10.3-0.4 15.4 0 6.1 0.2 12.1 0.5 18 82.6-51.5 193.6-83.1 315.8-83.1 113.6 0 217.7 27.3 298.2 72.6 0.1-2.5 0.1-5.1 0.1-7.6 0-7.9-0.3-15.7-0.9-23.5-80.4-44.9-184.1-72.1-297.4-72.1z" fill="#AFF4F9" p-id="3000"></path><path d="M508.5 809.8c-76.1 0-149.5-27.7-206.5-78-56.5-49.8-93.2-118.2-103.2-192.5-0.2-1.8 0.5-3.6 1.8-4.7 1-0.8 2.2-1.2 3.4-1.2 0.5 0 1.1 0.1 1.6 0.3 1.9 0.6 3.9 1.3 5.9 2 11.2 3.8 25.2 8.5 39.8 8.5 12.2 0 22.9-3.2 32.9-9.9 20.6-13.8 43.1-20.9 66.8-20.9 54.7 0 97.9 36.9 103.4 41.8 5.1 2.6 45.2 22.5 89.6 22.5 27.4 0 51.1-7.5 70.4-22.3 18.8-14.4 41.5-21.7 67.6-21.7 36.9 0 67.1 14.6 68.4 15.2 0.3 0.1 0.6 0.3 0.8 0.5 0.3 0.2 32.4 23.9 53.1 35.6 2.2 1.2 3.2 3.8 2.4 6.2-9.8 31.3-24.6 60.8-43.7 87.7-18.9 26.5-41.7 49.8-67.8 69.3-54.2 40.2-118.8 61.6-186.7 61.6z" fill="#1D6FFF" p-id="3001"></path><path d="M351 518.5c56 0 100.3 40.9 100.3 40.9s43.4 23.4 92.7 23.4c24.6 0 50.7-5.9 73.6-23.4 20.4-15.7 43.4-20.6 64.4-20.6 36.1 0 66.1 14.7 66.1 14.7s32.4 23.9 53.6 35.9c-39.1 124.7-155.6 215.1-293.2 215.1-155.7 0-284.3-115.8-304.5-265.9 12.3 3.9 29.1 10.7 47.3 10.7 11.6 0 23.8-2.8 35.8-10.8 21.8-14.6 43.6-20 63.9-20m0-10.5v10.5V508c-24.7 0-48.2 7.3-69.7 21.8-9 6.1-18.8 9-29.9 9-13.7 0-27.3-4.6-38.1-8.2-2.1-0.7-4.1-1.4-6-2-1.1-0.3-2.1-0.5-3.2-0.5-2.4 0-4.8 0.8-6.8 2.5-2.8 2.3-4.2 5.9-3.7 9.5 10.2 75.6 47.4 145.1 104.9 195.8 28.4 25 60.6 44.6 95.8 58.1 36.4 14 74.8 21.1 114.2 21.1 34.8 0 69-5.6 101.7-16.6 31.6-10.7 61.2-26.2 88.1-46.3 26.5-19.8 49.7-43.5 69-70.4 19.5-27.3 34.4-57.3 44.5-89.2 1.5-4.7-0.5-9.9-4.9-12.3-20.4-11.5-52.2-35-52.5-35.2-0.5-0.4-1.1-0.7-1.6-1-1.3-0.6-32.6-15.7-70.7-15.7-27.3 0-51.1 7.7-70.8 22.8-18.4 14.1-41 21.2-67.2 21.2-41.9 0-80-18.3-86.7-21.6-3.4-3-14.2-11.9-30-20.9-25.3-14.4-51.7-21.9-76.4-21.9z" fill="#6D4120" p-id="3002"></path><path d="M508.6 809.4c-65 0-127.3-19.8-180.2-57.2-25.5-18-48.1-39.7-67.2-64.4-19.3-24.9-34.6-52.5-45.6-81.9-0.7-1.8-0.3-3.9 1-5.4 1-1.1 2.4-1.7 3.9-1.7 0.4 0 0.9 0.1 1.3 0.2 8.3 2.2 15.8 3.2 22.7 3.2 12.2 0 22.9-3.2 32.9-9.9 20.6-13.8 43.1-20.9 66.8-20.9 54.7 0 97.9 36.9 103.4 41.8 5.1 2.6 45.2 22.5 89.6 22.5 27.4 0 51.1-7.5 70.4-22.3 18.8-14.4 41.5-21.7 67.6-21.7 36.9 0 67.1 14.6 68.4 15.2 0.3 0.1 0.6 0.3 0.8 0.5 0.2 0.2 20.7 15.3 39.4 27.3 2.3 1.5 3.1 4.5 1.8 6.9-26.1 49.8-65.1 91.7-113 121.3-49.1 30.4-105.9 46.5-164 46.5z" fill="#34A4F7" p-id="3003"></path><path d="M344.2 576.8c56 0 100.3 40.9 100.3 40.9s43.4 23.4 92.7 23.4c24.6 0 50.7-5.9 73.6-23.4 20.4-15.7 43.4-20.6 64.4-20.6 36.1 0 66.1 14.7 66.1 14.7s20.6 15.2 39.7 27.5c-51.3 98.1-154 165-272.4 165-132 0-244.5-83.2-288-200 7.5 1.9 15.6 3.4 24 3.4 11.6 0 23.8-2.8 35.8-10.8 21.7-14.8 43.5-20.1 63.8-20.1m0-10.6c-24.7 0-48.2 7.3-69.7 21.8-9 6.1-18.8 9-29.9 9-6.5 0-13.4-1-21.3-3-0.9-0.2-1.8-0.3-2.6-0.3-2.9 0-5.8 1.2-7.8 3.5-2.6 2.9-3.4 7-2 10.7 11.1 29.9 26.7 57.9 46.3 83.3 19.4 25.1 42.4 47.1 68.3 65.4 53.8 38 117.2 58.1 183.3 58.1 59.1 0 116.8-16.4 166.9-47.3 48.6-30.1 88.4-72.7 114.9-123.3 2.5-4.8 0.9-10.8-3.6-13.7-18.6-11.9-38.9-26.9-39.1-27.1-0.5-0.4-1.1-0.7-1.6-1-1.3-0.6-32.6-15.7-70.7-15.7-27.3 0-51.1 7.7-70.8 22.8-18.4 14.1-41 21.2-67.2 21.2-41.9 0-80-18.3-86.7-21.6-3.4-3-14.2-11.9-30-20.9-25.6-14.3-52-21.9-76.7-21.9z" fill="#6D4120" p-id="3004"></path><path d="M508.7 810.9c-51.2 0-102-12.6-146.8-36.6-43.4-23.2-81.3-56.8-109.6-97.2-1.1-1.6-1.3-3.6-0.4-5.3 0.8-1.7 2.5-2.8 4.4-3 10.7-0.6 20.2-3.8 29-9.8 20.6-13.8 43.1-20.9 66.8-20.9 54.7 0 97.9 36.9 103.4 41.8 5.1 2.6 45.2 22.5 89.6 22.5 27.4 0 51.1-7.5 70.4-22.3 18.8-14.4 41.5-21.7 67.6-21.7 36.9 0 67.1 14.6 68.4 15.2 0.3 0.1 0.6 0.3 0.8 0.5 0 0 2.1 1.5 5.5 4 1.1 0.8 1.9 2.1 2.1 3.5 0.2 1.4-0.1 2.8-1 3.9-28.5 38.1-65.9 69.6-108.1 91.2-44.2 22.7-92 34.2-142.1 34.2z" fill="#3585F9" p-id="3005"></path><path d="M352.1 643.4c56 0 100.3 40.9 100.3 40.9s43.4 23.4 92.7 23.4c24.6 0 50.7-5.9 73.6-23.4 20.4-15.7 43.4-20.6 64.4-20.6 36.1 0 66.1 14.7 66.1 14.7s2.1 1.5 5.5 4c-56 74.8-145.4 123.2-246.1 123.2-104.4 0-196.6-52-252.1-131.6 10.4-0.6 21.1-3.6 31.6-10.7 21.9-14.5 43.7-19.9 64-19.9m0-10.5v10.5-10.5c-24.7 0-48.2 7.3-69.7 21.8-8.1 5.4-16.7 8.3-26.4 8.9-3.8 0.2-7.2 2.5-8.9 5.9-1.7 3.4-1.3 7.5 0.8 10.6 28.7 41.1 67.2 75.3 111.4 98.9 22.5 12 46.4 21.3 71.1 27.5 25.4 6.4 51.7 9.7 78.2 9.7 25.5 0 50.9-3 75.5-9 23.9-5.8 47.1-14.5 69-25.7 21.5-11 41.8-24.5 60.4-40.2 18.4-15.6 35.1-33.2 49.6-52.5 1.7-2.3 2.4-5.1 2-7.9-0.4-2.8-2-5.3-4.2-6.9-3.4-2.4-5.4-3.9-5.4-4-0.5-0.4-1.1-0.7-1.6-1-1.3-0.6-32.6-15.7-70.7-15.7-27.3 0-51.1 7.7-70.8 22.8-18.4 14.1-41 21.2-67.2 21.2-42.1 0-80-18.3-86.7-21.6-3.4-3-14.2-11.9-30-20.9-25.3-14.4-51.7-21.9-76.4-21.9z" fill="#6D4120" p-id="3006"></path><path d="M509.5 810.3c-42.1 0-82.9-8.2-121.4-24.5-37.1-15.7-70.5-38.1-99.2-66.7-1.1-1.1-1.7-2.7-1.5-4.2 0.2-1.6 1-3 2.3-3.9 20.5-13.6 42.8-20.5 66.2-20.5 54.7 0 97.9 36.9 103.4 41.8 5.1 2.6 45.2 22.5 89.6 22.5 27.4 0 51.1-7.5 70.4-22.3 18.8-14.4 41.5-21.7 67.6-21.7 11.5 0 23.5 1.4 35.8 4.3 1.9 0.4 3.4 1.9 3.9 3.7 0.5 1.9 0 3.9-1.4 5.2-58.4 55.6-135 86.3-215.7 86.3z" fill="#34A4F7" p-id="3007"></path><path d="M356 695.8c56 0 100.3 40.9 100.3 40.9s43.4 23.4 92.7 23.4c24.6 0 50.7-5.9 73.6-23.4C643 721 666 716 687 716c12.6 0 24.5 1.8 34.6 4.1-55.1 52.6-129.8 84.9-212 84.9-84.7 0-161.3-34.2-216.9-89.6 21.5-14.4 43.1-19.6 63.3-19.6m0-10.6c-24.5 0-47.8 7.2-69.2 21.4-2.6 1.7-4.3 4.6-4.6 7.7s0.8 6.3 3 8.5c29.2 29.1 63.1 51.9 100.9 67.8 39.1 16.5 80.7 24.9 123.5 24.9 82.1 0 159.9-31.2 219.3-87.8 2.8-2.7 3.9-6.7 2.9-10.4s-4-6.6-7.8-7.5c-12.6-2.9-25.1-4.4-36.9-4.4-27.3 0-51.1 7.7-70.8 22.8-18.4 14.1-41 21.2-67.2 21.2-42.1 0-80-18.3-86.7-21.6-3.4-3-14.2-11.9-30-20.9-25.3-14.1-51.7-21.7-76.4-21.7z" fill="#6D4120" p-id="3008"></path><path d="M700.6 495c-22.3 0-40.5-18.1-40.5-40.5 0-22.3 18.1-40.5 40.5-40.5 22.3 0 40.5 18.1 40.5 40.5-0.1 22.4-18.2 40.5-40.5 40.5z" fill="#70C7FC" p-id="3009"></path><path d="M700.6 419.4c19.4 0 35.2 15.8 35.2 35.2 0 19.4-15.8 35.2-35.2 35.2-19.4 0-35.2-15.8-35.2-35.2 0-19.5 15.8-35.2 35.2-35.2m0-10.5c-25.2 0-45.7 20.5-45.7 45.7 0 25.2 20.5 45.7 45.7 45.7s45.7-20.5 45.7-45.7c0-25.2-20.5-45.7-45.7-45.7z" fill="#6D4120" p-id="3010"></path><path d="M700.6 419.4c-6.5 0-12.5 1.8-17.7 4.8 17.5 2 31.2 16.9 31.2 35 0 13-7 24.3-17.5 30.4 1.3 0.2 2.7 0.2 4 0.2 19.4 0 35.2-15.8 35.2-35.2 0-19.5-15.8-35.2-35.2-35.2z" fill="#FFFFFF" p-id="3011"></path><path d="M308 415c-25.5 0-46.3-20.8-46.3-46.3 0-25.5 20.8-46.3 46.3-46.3s46.3 20.8 46.3 46.3c0 25.5-20.8 46.3-46.3 46.3z" fill="#70C7FC" p-id="3012"></path><path d="M308 327.6c22.7 0 41 18.4 41 41 0 22.7-18.4 41-41 41-22.7 0-41-18.4-41-41-0.1-22.6 18.3-41 41-41m0-10.5c-28.4 0-51.6 23.1-51.6 51.6s23.1 51.6 51.6 51.6 51.6-23.1 51.6-51.6-23.2-51.6-51.6-51.6z" fill="#6D4120" p-id="3013"></path><path d="M308 327.6c-7.5 0-14.6 2-20.7 5.6 20.5 2.3 36.4 19.7 36.4 40.8 0 15.1-8.2 28.3-20.4 35.4 1.5 0.2 3.1 0.3 4.7 0.3 22.7 0 41-18.4 41-41s-18.4-41.1-41-41.1z" fill="#FFFFFF" p-id="3014"></path><path d="M396.4 508.3c-16.3 0-29.5-13.2-29.5-29.5s13.2-29.5 29.5-29.5 29.5 13.2 29.5 29.5-13.3 29.5-29.5 29.5z" fill="#70C7FC" p-id="3015"></path><path d="M396.4 454.6c13.4 0 24.2 10.8 24.2 24.2S409.8 503 396.4 503s-24.2-10.8-24.2-24.2 10.8-24.2 24.2-24.2m0-10.6c-19.2 0-34.7 15.6-34.7 34.7s15.6 34.7 34.7 34.7 34.7-15.6 34.7-34.7-15.6-34.7-34.7-34.7z" fill="#6D4120" p-id="3016"></path><path d="M396.4 454.6c-4.5 0-8.6 1.2-12.2 3.3 12.1 1.4 21.5 11.6 21.5 24.1 0 8.9-4.8 16.7-12 20.9 0.9 0.1 1.8 0.2 2.8 0.2 13.4 0 24.2-10.8 24.2-24.2s-10.9-24.3-24.3-24.3z" fill="#FFFFFF" p-id="3017"></path><path d="M651.7 607c-12.4 0-22.5-10.1-22.5-22.5s10.1-22.5 22.5-22.5 22.5 10.1 22.5 22.5-10.1 22.5-22.5 22.5z" fill="#34A4F7" p-id="3018"></path><path d="M651.7 567.2c9.5 0 17.2 7.7 17.2 17.2s-7.7 17.2-17.2 17.2-17.2-7.7-17.2-17.2c-0.1-9.4 7.6-17.2 17.2-17.2m0-10.5c-15.3 0-27.8 12.5-27.8 27.8s12.5 27.8 27.8 27.8 27.8-12.5 27.8-27.8-12.5-27.8-27.8-27.8z" fill="#6D4120" p-id="3019"></path><path d="M651.7 567.2c-3.2 0-6.1 0.9-8.7 2.4 8.6 1 15.3 8.3 15.3 17.1 0 6.4-3.4 11.9-8.6 14.9 0.6 0.1 1.3 0.1 2 0.1 9.5 0 17.2-7.7 17.2-17.2s-7.7-17.3-17.2-17.3z" fill="#FFFFFF" p-id="3020"></path><path d="M382.8 780c-5.5 0-13.6-3.8-19.7-36.5-3.9-21.1-6.1-49.1-6.1-78.8s2.2-57.7 6.1-78.8c6.1-32.8 14.2-36.5 19.7-36.5s13.6 3.8 19.7 36.5c3.9 21.1 6.1 49.1 6.1 78.8s-2.2 57.7-6.1 78.8c-6.1 32.8-14.1 36.5-19.7 36.5z" fill="#86FC91" p-id="3021"></path><path d="M382.8 554.6c11.3 0 20.5 49.3 20.5 110.1s-9.2 110.1-20.5 110.1-20.5-49.3-20.5-110.1 9.2-110.1 20.5-110.1m0-10.6c-7.3 0-13.3 5-17.6 14.9-2.8 6.3-5.2 15-7.2 25.9-4 21.4-6.2 49.7-6.2 79.8s2.2 58.4 6.2 79.8c2 10.9 4.5 19.6 7.2 25.9 4.4 9.9 10.3 14.9 17.6 14.9s13.3-5 17.6-14.9c2.8-6.3 5.2-15 7.2-25.9 4-21.4 6.2-49.7 6.2-79.8s-2.2-58.4-6.2-79.8c-2-10.9-4.5-19.6-7.2-25.9-4.3-9.8-10.2-14.9-17.6-14.9z" fill="#6D4120" p-id="3022"></path><path d="M382.8 553.5c-2 0-4 1.6-5.8 4.5 8.5 13.4 14.7 55.6 14.7 105.7s-6.2 92.2-14.7 105.7c1.8 2.9 3.8 4.5 5.8 4.5 11.3 0 20.5-49.3 20.5-110.1 0.1-61-9.1-110.3-20.5-110.3z" fill="#58F960" p-id="3023"></path><path d="M382.8 558.4v212.2" fill="#86FC91" p-id="3024"></path><path d="M382.8 775.8c-2.9 0-5.3-2.4-5.3-5.3V558.4c0-2.9 2.4-5.3 5.3-5.3s5.3 2.4 5.3 5.3v212.1c0 3-2.4 5.3-5.3 5.3z" fill="#6D4120" p-id="3025"></path><path d="M424.5 784c-14.7 0-25.8-21.7-25.8-50.5s11.1-50.5 25.8-50.5c14.7 0 25.8 21.7 25.8 50.5-0.1 28.8-11.1 50.5-25.8 50.5z" fill="#86FC91" p-id="3026"></path><path d="M424.5 688.3c11.3 0 20.5 20.2 20.5 45.2 0 25-9.2 45.2-20.5 45.2S404 758.5 404 733.5c0-24.9 9.1-45.2 20.5-45.2m0-10.5c-5.4 0-10.7 2.2-15.2 6.4-3.5 3.2-6.5 7.6-8.9 13-4.5 9.9-6.9 22.8-6.9 36.3 0 13.5 2.5 26.4 6.9 36.3 2.5 5.4 5.5 9.8 8.9 13 4.5 4.2 9.7 6.4 15.2 6.4 5.4 0 10.7-2.2 15.2-6.4 3.5-3.2 6.5-7.6 8.9-13 4.5-9.9 6.9-22.8 6.9-36.3 0-13.5-2.5-26.4-6.9-36.3-2.5-5.4-5.5-9.8-8.9-13-4.5-4.2-9.8-6.4-15.2-6.4z" fill="#6D4120" p-id="3027"></path><path d="M424.5 688.3c-2 0-4 0.6-5.8 1.8 8.5 5.4 14.7 22.6 14.7 42.9 0 20.3-6.2 37.4-14.7 42.9 1.8 1.2 3.8 1.8 5.8 1.8 11.3 0 20.5-20 20.5-44.7s-9.2-44.7-20.5-44.7z" fill="#58F960" p-id="3028"></path><path d="M424.5 688.3v86.2" fill="#86FC91" p-id="3029"></path><path d="M424.5 779.8c-2.9 0-5.3-2.4-5.3-5.3v-86.2c0-2.9 2.4-5.3 5.3-5.3s5.3 2.4 5.3 5.3v86.2c-0.1 2.9-2.4 5.3-5.3 5.3z" fill="#6D4120" p-id="3030"></path><path d="M420.6 826.7c-12.4 0-22.5-10.1-22.5-22.5s10.1-22.5 22.5-22.5 22.5 10.1 22.5 22.5-10.1 22.5-22.5 22.5z" fill="#34A4F7" p-id="3031"></path><path d="M420.6 786.9c9.5 0 17.2 7.7 17.2 17.2s-7.7 17.2-17.2 17.2-17.2-7.7-17.2-17.2 7.7-17.2 17.2-17.2m0-10.5c-15.3 0-27.8 12.5-27.8 27.8s12.5 27.8 27.8 27.8 27.8-12.5 27.8-27.8-12.5-27.8-27.8-27.8z" fill="#6D4120" p-id="3032"></path><path d="M420.6 786.9c-3.2 0-6.1 0.9-8.7 2.4 8.6 1 15.3 8.3 15.3 17.1 0 6.4-3.4 11.9-8.6 14.9 0.6 0.1 1.3 0.1 2 0.1 9.5 0 17.2-7.7 17.2-17.2s-7.7-17.3-17.2-17.3z" fill="#FFFFFF" p-id="3033"></path><path d="M617 349c-58.9 0-106.7-47.9-106.7-106.8 0-18.3 4.7-36.4 13.6-52.2 0.9-1.7 2.7-2.7 4.6-2.7h0.3c35.6 2.2 70.1 10.4 102.7 24.4 31.6 13.5 60.7 32.1 86.4 55.2 1.5 1.4 2.1 3.4 1.5 5.4-6.4 21.7-19.8 41.2-37.9 55-18.6 14.2-41 21.7-64.5 21.7z" fill="#FCA2D0" p-id="3034"></path><path d="M528.5 192.6c71.3 4.5 136 33.3 185.9 78.2-12.3 42.1-51.3 72.9-97.4 72.9-56.1 0-101.5-45.4-101.5-101.5 0-18 4.7-34.9 13-49.6m0-10.5c-3.8 0-7.3 2-9.2 5.4-9.4 16.7-14.3 35.6-14.3 54.8 0 29.9 11.7 58 32.8 79.2s49.3 32.8 79.2 32.8c24.7 0 48.1-7.9 67.7-22.8 9.4-7.2 17.6-15.7 24.4-25.5 6.8-9.9 12-20.7 15.4-32.2 1.1-3.9-0.1-8.1-3.1-10.8-26.1-23.5-55.7-42.4-87.8-56.1-33.2-14.2-68.3-22.5-104.5-24.8h-0.6z" fill="#6D4120" p-id="3035"></path><path d="M620 305.2c33.5 0 61.8-22.3 70.7-52.9-36.2-32.6-83.2-53.5-135-56.8-6 10.7-9.4 23-9.4 36.1 0 40.6 33 73.6 73.7 73.6z" fill="#FC4F80" p-id="3036"></path><path d="M623.5 278.1c23.8 0 43.9-15.9 50.3-37.6-25.8-23.2-59.1-38.1-95.9-40.4-4.3 7.6-6.7 16.3-6.7 25.6 0 29 23.4 52.4 52.3 52.4z" fill="#F91616" p-id="3037"></path></svg>